<svg xmlns="http://www.w3.org/2000/svg" viewBox="0 14.449999809265137 52.54999923706055 32.14999771118164" data-asc="0.92" width="52.54999923706055" height="32.14999771118164"><defs/><g fill="#000000"><g transform="translate(0, 0)"><path d="M9.05 46.60L9.05 19.50L5.05 19.50L5.05 24L0 24L0 19L4.55 19L4.55 14.45L18.65 14.45L18.65 19L23.25 19L23.25 24L18.15 24L18.15 19.50L14.15 19.50L14.15 46.60L9.05 46.60ZM38.35 46.60L38.35 42.10L33.85 42.10L33.85 33L29.30 33L29.30 14.45L34.35 14.45L34.35 32.50L38.85 32.50L38.85 41.60L42.95 41.60L42.95 32.50L47.45 32.50L47.45 14.45L52.55 14.45L52.55 33L47.95 33L47.95 42.10L43.45 42.10L43.45 46.60L38.35 46.60Z"/></g></g></svg>